The Graduate 1967 Special Ed. BluRay 1080p DTS x264-LoNeWoLf

Encoded by Tequila-Bob a.k.a. bobnjeff a.k.a.LoNeWoLf

Source - NTSC BluRay Disc.

Movie has been tested and is DXVA Compliant

General Information:

RUNTIME........: 1h 45mn 
SIZE...........:  8.13 GiB
VIDEO CODEC....: x264 (L4.1)
RESOLUTION.....: 1920x816
BITRATE........: Overall bit rate : 11.0 Mbps 
FRAMERATE......: 23.976 fps
AUDIO 1........: English DTS 6 Channel 1510 Kbps
AUDIO 2........: French AC-3 2 Cannel 224 Kbps
SUBTITLES......:  English , French , Spanish 
CHAPTERS.......: YES
SOURCE.........: NTSC Blu-ray 
ENCODED DATE...: UTC 2010-12-31 00:58:35  
Encoder........: TequilaBob a.k.a. LoNeWoLf
GENRE..........: Comedy , Drama , Romance
RATING.........: 8.2/10 (81,499 votes) 430 reviews | Critics: 99 reviews
IMDB link......: http://www.imdb.com/title/tt0061722/



The Graduate (1967) 
106 min  -  Comedy | Drama | Romance   -  22 December 1967 (USA) 
8.2/10 X  Users: 8.2/10 (81,499 votes) 430 reviews | Critics: 99 reviews 
Recent college graduate Benjamin Braddock is trapped into an affair with Mrs. Robinson, who happens to be the wife of his father's business partner and then finds himself falling in love with her teenage daughter, Elaine. 

 MPAA rating: 'PG-13' for Sexual Content, Brief Nudity, Mild Language 

Release Date:22 December 1967 (USA) 

Director: Mike Nichols
Writers: Calder Willingham (screenplay), Buck Henry (screenplay), and 1 more credit » 
Stars:Dustin Hoffman, Anne Bancroft, Katharine Ross  
 

Storyline
Ben has recently graduated college, with his parents now expecting great things from him. At his "Homecoming" party, Mrs. Robinson, the wife of his father's business partner, has Ben drive her home, which leads to an affair between the two. The affair eventually ends, but comes back to haunt him when he finds himself falling for Elaine, Mrs. Robinson's daughter. 

Cast
Complete credited cast: 
  Anne Bancroft  ...  Mrs. Robinson  
  Dustin Hoffman  ...  Ben Braddock  
  Katharine Ross  ...  Elaine Robinson  
  William Daniels  ...  Mr. Braddock  
  Murray Hamilton  ...  Mr. Robinson  
  Elizabeth Wilson  ...  Mrs. Braddock  
  Buck Henry  ...  Room Clerk  
  Brian Avery  ...  Carl Smith  
  Walter Brooke  ...  Mr. McGuire  
  Norman Fell  ...  Mr. McCleery  
  Alice Ghostley  ...  Mrs. Singleman  
  Marion Lorne  ...  Miss DeWitte 

 
[img]http://torrent-stats.info/37fb/3dc8e349.png[/img]


See the full size 1920x816 PNG files at the link below
 
http://s1015.photobucket.com/albums/af279/tequila-bob/The%20Graduate%201967%20Special%20Ed/


Format : Matroska 
File size : 8.13 GiB 
Duration : 1h 45mn 
Overall bit rate : 11.0 Mbps 
Encoded date : UTC 2010-12-31 00:58:35 
Writing application : mkvmerge v4.4.0 ('Die Wiederkehr') built on Oct 31 2010 21:52:48 
Writing library : libebml v1.0.0 + libmatroska v1.0.0 

Video 
ID : 1 
Format : AVC 
Format/Info : Advanced Video Codec 
Format profile : High@L4.1 
Format settings, CABAC : Yes 
Format settings, ReFrames : 4 frames 
Muxing mode : Container profile=Unknown@4.1 
Codec ID : V_MPEG4/ISO/AVC 
Duration : 1h 45mn 
Bit rate : 9 232 Kbps 
Width : 1 920 pixels 
Height : 816 pixels 
Display aspect ratio : 2.35:1 
Frame rate : 23.976 fps 
Color space : YUV 
Chroma subsampling : 4:2:0 
Bit depth : 8 bits 
Scan type : Progressive 
Bits/(Pixel*Frame) : 0.246 
Stream size : 6.69 GiB (82%) 
Writing library : x264 core 98 r1649 c54c47d 
Encoding settings : cabac=1 / ref=5 / deblock=1:-3:-3 / analyse=0x3:0x113 / me=umh / subme=9 / psy=1 / psy_rd=1.00:0.15 / mixed_ref=1 / me_range=32 / chroma_me=1 / trellis=2 / 8x8dct=1 / cqm=0 / deadzone=21,11 / fast_pskip=0 / chroma_qp_offset=-3 / threads=6 / sliced_threads=0 / nr=0 / decimate=1 / interlaced=0 / constrained_intra=0 / bframes=3 / b_pyramid=1 / b_adapt=2 / b_bias=1 / direct=1 / weightb=1 / weightp=2 / keyint=250 / keyint_min=25 / scenecut=40 / intra_refresh=0 / rc_lookahead=60 / rc=2pass / mbtree=1 / bitrate=9232 / ratetol=1.0 / qcomp=0.60 / qpmin=10 / qpmax=51 / qpstep=4 / cplxblur=20.0 / qblur=0.5 / vbv_maxrate=50000 / vbv_bufsize=50000 / ip_ratio=1.40 / aq=1:1.50 / nal_hrd=none 
Language : English 

Audio #1 
ID : 2 
Format : DTS 
Format/Info : Digital Theater Systems 
Codec ID : A_DTS 
Duration : 1h 45mn 
Bit rate mode : Constant 
Bit rate : 1 510 Kbps 
Channel(s) : 6 channels 
Channel positions : Front: L C R, Side: L R, LFE 
Sampling rate : 48.0 KHz 
Bit depth : 24 bits 
Video delay : 10ms 
Stream size : 1.12 GiB (14%) 
Title : 3/2+1 
Language : English 

Audio #2 
ID : 3 
Format : AC-3 
Format/Info : Audio Coding 3 
Mode extension : CM (complete main) 
Codec ID : A_AC3 
Duration : 1h 45mn 
Bit rate mode : Constant 
Bit rate : 224 Kbps 
Channel(s) : 2 channels 
Channel positions : Front: L R 
Sampling rate : 48.0 KHz 
Bit depth : 16 bits 
Stream size : 170 MiB (2%) 
Title : 2/0 
Language : French 

Text  
ID : 4 
Format : PGS 
Codec ID : S_HDMV/PGS 
Codec ID/Info : The same subtitle format used on BDs/HD-DVDs 
Language : English : Spanish : French



Menu & 23 Chapters 




[url=http://www.phyrefile.com/image/view/zmbsn1j3b9qEf6nM][img]http://thumb.phyrefile.com/b/bo/bobnjeff/2010/12/31/300/vlcsnap-2010-12-31-06h46m42s216.png[/img][/url]

[url=http://www.phyrefile.com/image/view/ddi5O4s1VF3Jr9Z1][img]http://thumb.phyrefile.com/b/bo/bobnjeff/2010/12/31/300/vlcsnap-2010-12-31-06h49m37s176.png[/img][/url]

[url=http://www.phyrefile.com/image/view/SoKNIyTOE1GMKZhR][img]http://thumb.phyrefile.com/b/bo/bobnjeff/2010/12/31/300/vlcsnap-2010-12-31-06h49m47s14.png[/img][/url]

[url=http://www.phyrefile.com/image/view/ZKRKKIA5CMCL6bjQ][img]http://thumb.phyrefile.com/b/bo/bobnjeff/2010/12/31/300/vlcsnap-2010-12-31-06h50m34s227.png[/img][/url]

[url=http://www.phyrefile.com/image/view/bJ91zpxwJKruRXUo][img]http://thumb.phyrefile.com/b/bo/bobnjeff/2010/12/31/300/vlcsnap-2010-12-31-06h54m14s125.png[/img][/url]

[url=http://www.phyrefile.com/image/view/0UwVIRfoYqtokP0M][img]http://thumb.phyrefile.com/b/bo/bobnjeff/2010/12/31/300/vlcsnap-2010-12-31-06h56m35s251.png[/img][/url]

[url=http://www.phyrefile.com/image/view/QFqLPZnIufM3EjQ0][img]http://thumb.phyrefile.com/b/bo/bobnjeff/2010/12/31/300/vlcsnap-2010-12-31-06h57m12s111.png[/img][/url]

[url=http://www.phyrefile.com/image/view/J8UtugQ4jVuHaPUq][img]http://thumb.phyrefile.com/b/bo/bobnjeff/2010/12/31/300/vlcsnap-2010-12-31-06h58m08s161.png[/img][/url]

[url=http://www.phyrefile.com/image/view/CfERq0bZjEYtCcKh][img]http://thumb.phyrefile.com/b/bo/bobnjeff/2010/12/31/300/vlcsnap-2010-12-31-06h58m48s55.png[/img][/url]

[url=http://www.phyrefile.com/image/view/EFe6bDTkiCLEVuDA][img]http://thumb.phyrefile.com/b/bo/bobnjeff/2010/12/31/300/vlcsnap-2010-12-31-07h01m13s214.png[/img][/url]